<?xml version="1.0" encoding="UTF-8"?>
<svg version="1.1" xmlns="http://www.w3.org/2000/svg" width="759" height="250">
    <path d="M0 0 C2.39111328 0.07617188 2.39111328 0.07617188 4.39111328 1.07617188 C4.39111328 7.01617187 4.39111328 12.95617187 4.39111328 19.07617188 C-7.48888672 19.07617188 -19.36888672 19.07617188 -31.60888672 19.07617188 C-31.27888672 20.06617187 -30.94888672 21.05617188 -30.60888672 22.07617188 C-30.56370503 24.79272067 -30.56117625 27.48644648 -30.60888672 30.20117188 C-30.65464827 32.83246118 -30.65600395 35.44349675 -30.60888672 38.07617188 C-28.74923597 39.93582263 -25.65999553 39.31704737 -23.16748047 39.39257812 C-21.86230469 39.43447266 -20.55712891 39.47636719 -19.21240234 39.51953125 C-17.82373342 39.55934795 -16.4350615 39.59906012 -15.04638672 39.63867188 C-13.65379488 39.68185176 -12.26121644 39.72546588 -10.86865234 39.76953125 C-7.44883871 39.87603064 -4.02894909 39.97804111 -0.60888672 40.07617188 C0.39111328 44.07617188 0.39111328 44.07617188 -0.60888672 59.07617188 C-10.83888672 59.07617188 -21.06888672 59.07617188 -31.60888672 59.07617188 C-31.60888672 65.67617187 -31.60888672 72.27617187 -31.60888672 79.07617188 C-19.72888672 79.40617187 -7.84888672 79.73617187 4.39111328 80.07617188 C4.88611328 84.53117187 4.88611328 84.53117187 5.39111328 89.07617188 C7.59249988 85.27189695 7.59249988 85.27189695 8.39111328 81.07617188 C9.05111328 81.07617188 9.71111328 81.07617188 10.39111328 81.07617188 C10.510271 79.94356934 10.510271 79.94356934 10.63183594 78.78808594 C11.7065918 73.53387752 13.63422193 68.68951718 15.53955078 63.68554688 C15.95274567 62.585755 16.36594055 61.48596313 16.79165649 60.35284424 C18.11131601 56.84198446 19.43813833 53.33389396 20.76611328 49.82617188 C22.0862052 46.3324637 23.40463642 42.83815848 24.71914673 39.34234619 C25.53601258 37.17060351 26.35611963 35.00007618 27.18002319 32.83099365 C29.28046736 27.25341621 31.16058815 21.70365149 32.69473267 15.94219971 C33.39111328 14.07617188 33.39111328 14.07617188 35.39111328 13.07617188 C35.73385734 11.41141502 36.06475631 9.74421864 36.39111328 8.07617188 C38.77495167 1.69233349 38.77495167 1.69233349 40.39111328 0.07617188 C42.24480939 -0.01120458 44.10178869 -0.03080966 45.95751953 -0.02148438 C47.08222656 -0.01826172 48.20693359 -0.01503906 49.36572266 -0.01171875 C50.54972656 -0.00333984 51.73373047 0.00503906 52.95361328 0.01367188 C54.14148438 0.01818359 55.32935547 0.02269531 56.55322266 0.02734375 C59.49923554 0.03917513 62.44515009 0.05565901 65.39111328 0.07617188 C65.59027344 0.76324219 65.78943359 1.4503125 65.99462891 2.15820312 C66.25953125 3.05925781 66.52443359 3.9603125 66.79736328 4.88867188 C67.05839844 5.78199219 67.31943359 6.6753125 67.58837891 7.59570312 C68.36891093 10.21938365 68.36891093 10.21938365 69.89111328 13.07617188 C71.61188888 16.51772308 72.58428859 19.94693942 73.64501953 23.63476562 C74.64387136 26.90325982 75.99857148 29.95687823 77.39111328 33.07617188 C79.80603628 38.7885801 81.91768897 44.48213924 83.58251953 50.45898438 C84.46119117 53.30299403 85.50707478 56.0684458 86.55714417 58.8527832 C87.90915513 62.45728823 89.21789694 66.07729949 90.52783203 69.69726562 C90.81213577 70.48263199 91.09643951 71.26799835 91.38935852 72.0771637 C91.98372414 73.71988146 92.57781185 75.3626998 93.17163086 77.00561523 C94.08510618 79.53162653 95.00080245 82.05682624 95.91650391 84.58203125 C96.49541696 86.18289317 97.07419787 87.78380288 97.65283203 89.38476562 C97.92778 90.14196396 98.20272797 90.89916229 98.48600769 91.67930603 C100.39111328 96.96195922 100.39111328 96.96195922 100.39111328 98.07617188 C93.13111328 98.07617188 85.87111328 98.07617188 78.39111328 98.07617188 C77.40111328 95.10617188 76.41111328 92.13617188 75.39111328 89.07617188 C74.83423828 87.63242188 74.27736328 86.18867188 73.70361328 84.70117188 C72.39111328 81.07617188 72.39111328 81.07617188 72.39111328 78.07617188 C59.19111328 78.40617187 45.99111328 78.73617187 32.39111328 79.07617188 C27.21162374 90.22144663 27.21162374 90.22144663 27.39111328 95.07617188 C26.73111328 95.07617188 26.07111328 95.07617188 25.39111328 95.07617188 C25.39111328 96.06617188 25.39111328 97.05617188 25.39111328 98.07617188 C-13.71388672 98.57117188 -13.71388672 98.57117188 -53.60888672 99.07617188 C-53.59728516 92.58832031 -53.58568359 86.10046875 -53.57373047 79.41601562 C-53.5686197 75.30078025 -53.56380563 71.18554879 -53.56005859 67.0703125 C-53.55408565 60.54141424 -53.54702669 54.01253003 -53.53344727 47.48364258 C-53.52256555 42.21871855 -53.51659867 36.9538096 -53.51400948 31.6888752 C-53.51216476 29.6822848 -53.5085625 27.67569521 -53.50315666 25.66911125 C-53.49587611 22.85417791 -53.49489874 20.03930651 -53.49536133 17.22436523 C-53.49176605 16.39861496 -53.48817078 15.57286469 -53.48446655 14.72209167 C-53.49271834 10.06808238 -53.83607236 5.66729158 -54.60888672 1.07617188 C-47.45558284 0.93292386 -40.30226091 0.79060461 -33.14892578 0.64892578 C-30.71630435 0.60063633 -28.28368711 0.55213562 -25.85107422 0.50341797 C-22.35108506 0.433361 -18.85108147 0.36406805 -15.35107422 0.29492188 C-14.26647919 0.2730481 -13.18188416 0.25117432 -12.06442261 0.2286377 C-8.04296608 0.14975059 -4.02133923 0.08487741 0 0 Z M51.39111328 25.07617188 C51.39111328 25.73617187 51.39111328 26.39617187 51.39111328 27.07617188 C50.73111328 27.07617188 50.07111328 27.07617188 49.39111328 27.07617188 C49.26478516 27.63949219 49.13845703 28.2028125 49.00830078 28.78320312 C48.35410947 31.21364804 47.48157355 33.43983146 46.51611328 35.76367188 C43.68309581 42.74356999 41.42078189 49.82735541 39.39111328 57.07617188 C39.06111328 58.06617188 38.73111328 59.05617187 38.39111328 60.07617188 C40.87775983 62.56281842 47.48713158 61.31021256 50.82861328 61.32617188 C51.90433594 61.34679687 52.98005859 61.36742187 54.08837891 61.38867188 C55.62848633 61.39640625 55.62848633 61.39640625 57.19970703 61.40429688 C58.14644287 61.41364258 59.09317871 61.42298828 60.06860352 61.43261719 C60.83503174 61.31499023 61.60145996 61.19736328 62.39111328 61.07617188 C64.60606856 58.41190576 64.60606856 58.41190576 64.26757812 56.17700195 C62.77953989 50.27525681 61.01429683 44.51275602 59.01611328 38.76367188 C58.57912109 37.44399414 58.57912109 37.44399414 58.13330078 36.09765625 C56.55812828 31.54830936 55.30051939 28.15030839 51.39111328 25.07617188 Z M64.39111328 59.07617188 C65.39111328 61.07617188 65.39111328 61.07617188 65.39111328 61.07617188 Z M4.39111328 90.07617188 C4.72111328 91.39617187 5.05111328 92.71617187 5.39111328 94.07617188 C5.72111328 93.08617187 6.05111328 92.09617187 6.39111328 91.07617188 C5.73111328 90.74617188 5.07111328 90.41617188 4.39111328 90.07617188 Z " fill="#FEFEFE" transform="translate(461.60888671875,76.923828125)"/>
    <path d="M0 0 C0 0.66 0 1.32 0 2 C1.65 2.33 3.3 2.66 5 3 C5 3.66 5 4.32 5 5 C5.60070312 5.09667969 6.20140625 5.19335938 6.8203125 5.29296875 C13.38284833 7.42167661 16.90387852 17.30810891 19.80078125 22.97265625 C24.50369373 34.84482945 22.94603524 49.49897829 18 61 C16.42687796 63.71988389 14.79808288 66.31928164 12.9765625 68.87890625 C11.76038405 70.92587518 11.76038405 70.92587518 12.515625 72.92578125 C14.90025496 76.25798785 17.71705681 79.15112008 20.54296875 82.109375 C24 85.79821884 24 85.79821884 24 88 C22.11157486 88.87042243 20.21388098 89.72075474 18.3125 90.5625 C17.25675781 91.03816406 16.20101562 91.51382813 15.11328125 92.00390625 C11.69932945 93.09619949 10.30541428 93.3307512 7 92 C4.54296875 89.71484375 4.54296875 89.71484375 2.1875 86.9375 C1.39730469 86.01839844 0.60710937 85.09929687 -0.20703125 84.15234375 C-1.09455078 83.08693359 -1.09455078 83.08693359 -2 82 C-2.64582031 82.2165625 -3.29164062 82.433125 -3.95703125 82.65625 C-17.39342376 86.62651099 -32.13953957 86.96257711 -45 81 C-46.24523437 80.43925781 -46.24523437 80.43925781 -47.515625 79.8671875 C-52.75177861 77.2491107 -56.8099473 73.9664742 -60 69 C-60 68.34 -60 67.68 -60 67 C-60.66 67 -61.32 67 -62 67 C-62.12375 66.195625 -62.2475 65.39125 -62.375 64.5625 C-62.58125 63.716875 -62.7875 62.87125 -63 62 C-63.66 61.67 -64.32 61.34 -65 61 C-65 59.68 -65 58.36 -65 57 C-65.66 56.67 -66.32 56.34 -67 56 C-66.67 55.34 -66.34 54.68 -66 54 C-66.66 54 -67.32 54 -68 54 C-67.67 52.68 -67.34 51.36 -67 50 C-67.66 50 -68.32 50 -69 50 C-69.45731864 42.5812754 -69.01140165 35.80598064 -67.1875 28.625 C-67.02217773 27.97208984 -66.85685547 27.31917969 -66.68652344 26.64648438 C-65.49194378 22.22361506 -63.87712374 18.16301942 -62 14 C-61.34 14 -60.68 14 -60 14 C-59.63455078 13.14728516 -59.63455078 13.14728516 -59.26171875 12.27734375 C-55.02453992 4.62943273 -47.3117312 -0.0952388 -39.16552734 -2.65966797 C-25.97046932 -6.19470086 -12.66992056 -4.62979153 0 0 Z M-44.59765625 22.08984375 C-49.97424024 29.41338016 -50.63727176 38.79682059 -49.4375 47.5625 C-47.99499943 54.44361757 -44.54311458 59.45688542 -39.625 64.375 C-32.1333587 69.01268271 -24.48035493 70.46147865 -15.765625 68.49609375 C-8.38830027 65.99409408 -2.78814633 61.87478409 1 55 C2.87121916 50.34887612 3.35362471 46.09227696 3.3125 41.125 C3.30686035 40.41609619 3.3012207 39.70719238 3.29541016 38.97680664 C3.10999638 31.00126041 1.16504683 25.46853878 -4.25 19.5390625 C-10.48752034 14.05338613 -17.71847724 12.62899731 -25.796875 12.7265625 C-33.42780148 13.37798305 -39.47354122 16.41111863 -44.59765625 22.08984375 Z " fill="#FEFEFE" transform="translate(114,82)"/>
    <path d="M0 0 C0.87884354 0.00395782 1.75768707 0.00791565 2.66316223 0.01199341 C6.72449383 0.06025618 10.78562484 0.11000611 14.84667969 0.17822266 C16.97513092 0.20982933 19.10376195 0.23118488 21.23242188 0.24169922 C46.59185619 0.36838752 46.59185619 0.36838752 57.6940918 8.16357422 C64.80812354 18.29568003 67.19486051 26.90058787 65.7565918 39.10107422 C64.22283211 46.12228525 61.47177469 52.54483498 55.7565918 57.10107422 C45.89959636 63.14688088 37.13017961 64.19143316 25.8190918 64.66357422 C20.8381543 64.88013672 20.8381543 64.88013672 15.7565918 65.10107422 C15.4265918 75.99107422 15.0965918 86.88107422 14.7565918 98.10107422 C4.3615918 98.59607422 4.3615918 98.59607422 -6.2434082 99.10107422 C-6.2434082 66.76107422 -6.2434082 34.42107422 -6.2434082 1.10107422 C-3.91463864 -0.06331056 -2.59151965 -0.01643117 0 0 Z M16.05102539 19.29321289 C14.2973254 21.74250532 14.39853417 23.359912 14.4284668 26.35498047 C14.43362305 27.37398437 14.4387793 28.39298828 14.4440918 29.44287109 C14.4647168 30.50570312 14.4853418 31.56853516 14.5065918 32.66357422 C14.51174805 33.73027344 14.5169043 34.79697266 14.5222168 35.89599609 C14.34895246 41.16665944 14.34895246 41.16665944 15.7565918 46.10107422 C18.96475024 46.18881488 22.17259642 46.24171128 25.3815918 46.28857422 C26.28522461 46.31371094 27.18885742 46.33884766 28.11987305 46.36474609 C33.44690612 46.42307127 37.15652819 46.1118924 41.7565918 43.10107422 C45.35163395 39.13413115 46.05369216 35.491399 45.9753418 30.16357422 C45.53887128 26.04828076 43.81473679 23.12394771 40.8815918 20.28857422 C36.17745005 17.65978913 30.89805703 17.88944555 25.6315918 17.85107422 C24.91616211 17.83044922 24.20073242 17.80982422 23.46362305 17.78857422 C19.53111355 17.70085911 19.53111355 17.70085911 16.05102539 19.29321289 Z " fill="#FEFEFE" transform="translate(650.243408203125,76.89892578125)"/>
    <path d="M0 0 C0.495 0.99 0.495 0.99 1 2 C1.89332031 2.13921875 2.78664063 2.2784375 3.70703125 2.421875 C7.37807586 3.06637631 9.56418504 4.24619961 12.6875 6.25 C13.61949219 6.83265625 14.55148437 7.4153125 15.51171875 8.015625 C21.82431808 13.04984864 24.62853214 22.07141433 25.90234375 29.83203125 C26.16190775 38.25228727 23.38401998 47.93903223 17.8203125 54.35546875 C7.95935626 63.26418673 -2.82479044 64.34539063 -15.625 64.125 C-19.04875 64.08375 -22.4725 64.0425 -26 64 C-26 75.22 -26 86.44 -26 98 C-36.395 98.495 -36.395 98.495 -47 99 C-48.34148634 94.97554098 -48.08357399 91.13086257 -48.02172852 86.9387207 C-48.01212097 86.01169342 -48.00251343 85.08466614 -47.99261475 84.12954712 C-47.95960063 81.06154849 -47.91927736 77.99369117 -47.87890625 74.92578125 C-47.8546075 72.80015056 -47.83076382 70.67451461 -47.80735779 68.5488739 C-47.74449252 62.95106027 -47.67543272 57.35333939 -47.60510254 51.75561523 C-47.52202011 45.0409359 -47.44659643 38.32616673 -47.36989594 31.61141205 C-47.25247917 21.40752695 -47.1253065 11.20380501 -47 1 C-31.49 0.67 -15.98 0.34 0 0 Z M-26 18 C-26 27.24 -26 36.48 -26 46 C-20.988125 46.0928125 -20.988125 46.0928125 -15.875 46.1875 C-14.83327637 46.21481201 -13.79155273 46.24212402 -12.71826172 46.27026367 C-7.40909005 46.31774905 -3.51288284 46.12808857 1 43 C4.34898053 39.51417941 4.78605025 36.29760064 5.1328125 31.609375 C4.9251541 27.52949826 3.58465816 24.16678837 1 21 C-4.59051046 17.34703953 -11.45981222 17.86737849 -17.875 17.9375 C-20.55625 17.958125 -23.2375 17.97875 -26 18 Z " fill="#FEFEFE" transform="translate(613,77)"/>
    <path d="M0 0 C0.04658283 7.51990526 0.08199991 15.03979533 0.10362434 22.55981255 C0.11400917 26.05262263 0.12806993 29.54533314 0.15087891 33.03808594 C0.17700455 37.0644622 0.18651654 41.09073579 0.1953125 45.1171875 C0.20563507 46.35612762 0.21595764 47.59506775 0.22659302 48.87155151 C0.22804952 60.25332827 -0.63297959 71.04034523 -8.63671875 79.7890625 C-17.92782893 88.26589561 -28.98403405 88.55984718 -40.97363281 88.13183594 C-49.23942783 87.59406132 -54.77238266 84.16331322 -61 79 C-61.99 78.34 -62.98 77.68 -64 77 C-66.73505636 71.91407579 -68.61395048 66.83252954 -68 61 C-68.66 60.67 -69.32 60.34 -70 60 C-69.505 30.3 -69.505 30.3 -69 0 C-62.73 0 -56.46 0 -50 0 C-49.9906543 1.77568359 -49.98130859 3.55136719 -49.97167969 5.38085938 C-49.93604313 11.27229897 -49.88217598 17.16342331 -49.81609726 23.05458832 C-49.77672284 26.62364948 -49.74448584 30.19246764 -49.72900391 33.76171875 C-49.7137702 37.21148889 -49.67920863 40.66059053 -49.63169098 44.11006165 C-49.60980909 46.05516362 -49.60753204 48.00045457 -49.60565186 49.94567871 C-49.48891057 57.05389942 -48.98271233 62.02144848 -45 68 C-40.31728778 70.82729795 -36.42176181 71.59146492 -31 71 C-27.74941676 69.58376759 -27.74941676 69.58376759 -25 68 C-24.34 68 -23.68 68 -23 68 C-19.89532404 60.30517448 -19.53063814 53.46162097 -19.48828125 45.21484375 C-19.47033005 43.91801163 -19.45237885 42.6211795 -19.43388367 41.28504944 C-19.38673532 37.86737023 -19.35670038 34.44975537 -19.33044434 31.03186035 C-19.3004593 27.53217869 -19.25399157 24.03271812 -19.20898438 20.53320312 C-19.12335272 13.68892884 -19.0558309 6.8445806 -19 0 C-16.20865148 -0.19425873 -13.41716313 -0.38069517 -10.625 -0.5625 C-9.8309375 -0.61857422 -9.036875 -0.67464844 -8.21875 -0.73242188 C-2.2265625 -1.11328125 -2.2265625 -1.11328125 0 0 Z " fill="#FEFEFE" transform="translate(211,79)"/>
    <path d="M0 0 C-0.33 5.94 -0.66 11.88 -1 18 C-8.59 18 -16.18 18 -24 18 C-24 44.07 -24 70.14 -24 97 C-34.395 97.495 -34.395 97.495 -45 98 C-45.15308166 87.86467488 -45.30185199 77.72931193 -45.4429636 67.59381294 C-45.50865621 62.88785524 -45.57626251 58.18194103 -45.64819336 53.47607422 C-45.71749867 48.93742191 -45.78184108 44.39872424 -45.84269524 39.85995102 C-45.86683132 38.12552191 -45.89277696 36.39111703 -45.92053413 34.6567421 C-45.95900982 32.23360232 -45.99113807 29.81045735 -46.02172852 27.38720703 C-46.03467453 26.66503998 -46.04762054 25.94287292 -46.06095886 25.19882202 C-46.11405216 20.22810432 -46.11405216 20.22810432 -45 18 C-52.59 18 -60.18 18 -68 18 C-68 12.06 -68 6.12 -68 0 C-61.20900936 -0.16987106 -54.41787831 -0.33014539 -47.62646484 -0.48217773 C-45.32432212 -0.53498801 -43.02223421 -0.59025497 -40.72021484 -0.64819336 C-27.06777786 -0.98995005 -13.62589608 -0.97534251 0 0 Z " fill="#FEFEFE" transform="translate(405,78)"/>
    <path d="M0 0 C5.80423366 2.57207217 10.92991763 7.28987565 13.36547852 13.19799805 C16.06890054 21.32245998 17.21106833 29.86935915 18.5168457 38.30541992 C18.92973152 40.945594 19.36776295 43.58083532 19.80664062 46.21679688 C20.07446764 47.91902753 20.340795 49.62149496 20.60546875 51.32421875 C20.73762283 52.09947403 20.86977692 52.87472931 21.00593567 53.67347717 C22.15229661 61.42544094 20.88055836 68.9164834 16.32910156 75.40722656 C10.61800839 81.99795189 0.60748581 85.48020114 -7.1328125 89.1328125 C-8.13441406 89.61363281 -9.13601563 90.09445313 -10.16796875 90.58984375 C-21.17431489 95.8233249 -31.12936546 98.34265785 -43.296875 95.765625 C-53.41620326 92.13551677 -60.68002835 84.54775556 -67.14453125 76.24609375 C-68.65983227 74.30767202 -70.2274706 72.40923997 -71.83984375 70.55078125 C-77.68095994 63.80377304 -81.3828125 58.52614575 -81.3828125 49.4453125 C-79.48405357 39.51638559 -74.48923817 33.96900939 -66.3828125 28.3828125 C-62.36466647 25.86800492 -58.26240213 23.52155162 -54.1328125 21.1953125 C-52.41357654 20.21574783 -50.69434192 19.23618077 -48.97525024 18.25636292 C-47.24041569 17.26906278 -45.50351095 16.2854032 -43.76660156 15.30175781 C-40.55740831 13.48182571 -37.35534928 11.6501054 -34.15625 9.8125 C-26.37153839 5.34357178 -26.37153839 5.34357178 -23.453125 3.67578125 C-22.75977051 3.2789917 -22.06641602 2.88220215 -21.35205078 2.47338867 C-14.51814267 -1.31127132 -7.70765403 -1.99640875 0 0 Z M-23.8671875 10.04296875 C-28.81722577 13.05403302 -33.82321064 15.95540745 -38.84887695 18.83813477 C-44.368882 22.00467738 -49.875635 25.19401977 -55.3828125 28.3828125 C-56.16914063 28.83575684 -56.95546875 29.28870117 -57.765625 29.75537109 C-68.00927128 35.30333631 -68.00927128 35.30333631 -74.21484375 44.6953125 C-75.80369417 50.79055155 -75.2415102 54.79523624 -72.3828125 60.3828125 C-70.64651718 62.89251181 -68.68886329 65.13135719 -66.6328125 67.3828125 C-66.09640137 67.98730225 -65.55999023 68.59179199 -65.00732422 69.21459961 C-63.94830886 70.40715134 -62.88513562 71.59602669 -61.81738281 72.78076172 C-60.00741714 74.8020338 -58.26047985 76.87433561 -56.5078125 78.9453125 C-50.98096796 85.1930498 -45.23863354 89.59754771 -36.83203125 90.95703125 C-25.07848004 91.31098035 -16.6968027 87.72316742 -6.3828125 82.3828125 C-4.95160957 81.68007 -3.51934208 80.97949078 -2.0859375 80.28125 C4.98549891 76.73838893 10.94579836 73.72559078 14.6171875 66.3828125 C15.33226113 55.9271065 14.0969732 45.90102369 12.2734375 35.62719727 C11.86257938 33.29414538 11.48118289 30.95745622 11.1015625 28.61914062 C10.84287972 27.1116806 10.58252465 25.60450637 10.3203125 24.09765625 C10.1544162 23.06631813 10.1544162 23.06631813 9.98516846 22.0141449 C8.86001958 15.89310994 6.16948548 12.00731039 1.9296875 7.5703125 C-6.85883777 1.7665694 -15.52905142 4.90725001 -23.8671875 10.04296875 Z " fill="#FDFDFD" transform="translate(304.3828125,78.6171875)"/>
    <path d="" fill="#FFFFFF" transform="translate(0,0)"/>
</svg>
