<?xml version="1.0" encoding="UTF-8"?>
<svg version="1.1" xmlns="http://www.w3.org/2000/svg" width="150" height="100">
    <path  fill="#fff" transform="translate(100,0)" d="M0 0 C5.80423366 2.57207217 10.92991763 7.28987565 13.36547852 13.19799805 C16.06890054 21.32245998 17.21106833 29.86935915 18.5168457 38.30541992 C18.92973152 40.945594 19.36776295 43.58083532 19.80664062 46.21679688 C20.07446764 47.91902753 20.340795 49.62149496 20.60546875 51.32421875 C20.73762283 52.09947403 20.86977692 52.87472931 21.00593567 53.67347717 C22.15229661 61.42544094 20.88055836 68.9164834 16.32910156 75.40722656 C10.61800839 81.99795189 0.60748581 85.48020114 -7.1328125 89.1328125 C-8.13441406 89.61363281 -9.13601563 90.09445313 -10.16796875 90.58984375 C-21.17431489 95.8233249 -31.12936546 98.34265785 -43.296875 95.765625 C-53.41620326 92.13551677 -60.68002835 84.54775556 -67.14453125 76.24609375 C-68.65983227 74.30767202 -70.2274706 72.40923997 -71.83984375 70.55078125 C-77.68095994 63.80377304 -81.3828125 58.52614575 -81.3828125 49.4453125 C-79.48405357 39.51638559 -74.48923817 33.96900939 -66.3828125 28.3828125 C-62.36466647 25.86800492 -58.26240213 23.52155162 -54.1328125 21.1953125 C-52.41357654 20.21574783 -50.69434192 19.23618077 -48.97525024 18.25636292 C-47.24041569 17.26906278 -45.50351095 16.2854032 -43.76660156 15.30175781 C-40.55740831 13.48182571 -37.35534928 11.6501054 -34.15625 9.8125 C-26.37153839 5.34357178 -26.37153839 5.34357178 -23.453125 3.67578125 C-22.75977051 3.2789917 -22.06641602 2.88220215 -21.35205078 2.47338867 C-14.51814267 -1.31127132 -7.70765403 -1.99640875 0 0 Z M-23.8671875 10.04296875 C-28.81722577 13.05403302 -33.82321064 15.95540745 -38.84887695 18.83813477 C-44.368882 22.00467738 -49.875635 25.19401977 -55.3828125 28.3828125 C-56.16914063 28.83575684 -56.95546875 29.28870117 -57.765625 29.75537109 C-68.00927128 35.30333631 -68.00927128 35.30333631 -74.21484375 44.6953125 C-75.80369417 50.79055155 -75.2415102 54.79523624 -72.3828125 60.3828125 C-70.64651718 62.89251181 -68.68886329 65.13135719 -66.6328125 67.3828125 C-66.09640137 67.98730225 -65.55999023 68.59179199 -65.00732422 69.21459961 C-63.94830886 70.40715134 -62.88513562 71.59602669 -61.81738281 72.78076172 C-60.00741714 74.8020338 -58.26047985 76.87433561 -56.5078125 78.9453125 C-50.98096796 85.1930498 -45.23863354 89.59754771 -36.83203125 90.95703125 C-25.07848004 91.31098035 -16.6968027 87.72316742 -6.3828125 82.3828125 C-4.95160957 81.68007 -3.51934208 80.97949078 -2.0859375 80.28125 C4.98549891 76.73838893 10.94579836 73.72559078 14.6171875 66.3828125 C15.33226113 55.9271065 14.0969732 45.90102369 12.2734375 35.62719727 C11.86257938 33.29414538 11.48118289 30.95745622 11.1015625 28.61914062 C10.84287972 27.1116806 10.58252465 25.60450637 10.3203125 24.09765625 C10.1544162 23.06631813 10.1544162 23.06631813 9.98516846 22.0141449 C8.86001958 15.89310994 6.16948548 12.00731039 1.9296875 7.5703125 C-6.85883777 1.7665694 -15.52905142 4.90725001 -23.8671875 10.04296875 Z "/>
</svg>
